<?xml version="1.0" encoding="UTF-8"?>
<svg width="96px" height="96px" viewBox="0 0 96 96" version="1.1" xmlns="http://www.w3.org/2000/svg" xmlns:xlink="http://www.w3.org/1999/xlink">
    <!-- Generator: Sketch 41.2 (35397) - http://www.bohemiancoding.com/sketch -->
    <title>facebook</title>
    <desc>Created with Sketch.</desc>
    <defs></defs>
    <g id="Page-1" stroke="none" stroke-width="1" fill="none" fill-rule="evenodd">
        <g id="facebook">
            <circle id="Oval" fill="#0399FF" cx="48" cy="48" r="48"></circle>
            <path d="M64.2695,23.5 L31.7305,23.5 C27.204,23.5 23.5,27.204 23.5,31.7305 L23.5,64.2695 C23.5,68.796 27.204,72.5 31.7305,72.5 L64.2695,72.5 C68.796,72.5 72.5,68.796 72.5,64.2695 L72.5,31.7305 C72.5,27.204 68.796,23.5 64.2695,23.5 Z" id="Shape" fill="#F7F7F7"></path>
            <path d="M41,50.4931024 L47.2295493,50.4459087 C47.2295493,50.4459087 47.2295493,47.5062304 47.2295493,44.9365444 C47.2295493,44.7693573 47.1839024,35 56.80857,35 L62.161478,35 L62.161478,42.3368385 L58.8551621,42.3368385 C58.8551621,42.3368385 54.8079732,42.3368385 54.8079732,45.9833735 C54.8079732,46.4566996 54.8079732,50.4931024 54.8079732,50.4931024 L61.8748162,50.4931024 L60.9493758,57.5333238 L54.7692751,57.6168098 L54.8079732,76.7160005 L47.2295493,76.7160005 L47.2047103,57.6681857 L41,57.6286398 L41.001392,53.0927185 L41,50.0072492" id="Path-2" fill="#0399FF"></path>
        </g>
    </g>
</svg>