<?xml version="1.0" encoding="UTF-8"?>
<svg width="96px" height="96px" viewBox="0 0 96 96" version="1.1" xmlns="http://www.w3.org/2000/svg" xmlns:xlink="http://www.w3.org/1999/xlink">
    <!-- Generator: Sketch 41.2 (35397) - http://www.bohemiancoding.com/sketch -->
    <title>phone</title>
    <desc>Created with Sketch.</desc>
    <defs></defs>
    <g id="Page-1" stroke="none" stroke-width="1" fill="none" fill-rule="evenodd">
        <g id="phone">
            <circle id="Oval" fill="#0399FF" cx="48" cy="48" r="48"></circle>
            <path d="M28.1479349,30.2571654 C28.1479349,30.2571654 27.8150813,28.8093496 28.1479349,28.4997699 C28.4148076,28.2515575 38.000011,21 38.4948017,21 C38.9895924,21 43.6210796,33.1339907 43.6210796,33.5416463 C43.6210796,33.9493019 39.2119653,37.0080934 38.4948017,37.7671864 C37.3046846,39.0268846 38.000011,40.1991102 38.000011,40.1991102 C38.000011,40.1991102 39.8641521,46.0187179 42.1944558,49.302166 C44.5247595,52.5856141 49.3210824,56.5603495 49.3210824,56.5603495 C49.3210824,56.5603495 49.8115799,57.1933939 51.7410464,56.5603495 C53.7407117,55.9042734 56.7593451,53.84891 57.3009496,53.84891 C57.8425541,53.84891 67.9416838,62.5255164 67.9416838,63.0503773 C67.9416838,63.5752381 57.6593995,70 57.3009496,70 C56.9424997,70 42.0240578,61.7442584 36.2398818,53.84891 C28.987921,43.9500486 28.1479349,30.2571654 28.1479349,30.2571654 Z" id="Path" fill="#F7F7F7"></path>
        </g>
    </g>
</svg>