<?xml version="1.0" encoding="UTF-8"?>
<svg width="96px" height="96px" viewBox="0 0 96 96" version="1.1" xmlns="http://www.w3.org/2000/svg" xmlns:xlink="http://www.w3.org/1999/xlink">
    <!-- Generator: Sketch 41.2 (35397) - http://www.bohemiancoding.com/sketch -->
    <title>soundcloud</title>
    <desc>Created with Sketch.</desc>
    <defs></defs>
    <g id="Page-1" stroke="none" stroke-width="1" fill="none" fill-rule="evenodd">
        <g id="soundcloud">
            <circle id="Oval" fill="#0399FF" cx="48" cy="48" r="48"></circle>
            <path d="M64.7695,24 L32.2305,24 C27.704,24 24,27.704 24,32.2305 L24,64.7695 C24,69.296 27.704,73 32.2305,73 L64.7695,73 C69.296,73 73,69.296 73,64.7695 L73,32.2305 C73,27.704 69.296,24 64.7695,24 Z" id="Shape" fill="#F7F7F7"></path>
            <path d="M29.0927073,48.8527634 C29.0006606,48.8527634 28.9248575,48.9348014 28.9113212,49.033247 L28.4889896,52.962867 L28.9113212,56.8049799 C28.9248575,56.9088946 29.0006606,56.9827288 29.0927073,56.9827288 C29.1820466,56.9827288 29.2551425,56.9088946 29.271386,56.8049799 L29.7532772,52.962867 L29.2659715,49.033247 C29.260557,48.9293322 29.1847539,48.8527634 29.0954145,48.8527634 L29.0927073,48.8527634 Z M27.4873057,50.3622625 C27.4006736,50.3622625 27.3248705,50.4306275 27.3167487,50.5318077 L27,52.9656016 L27.3167487,55.3501727 C27.3275777,55.4513529 27.3979663,55.5224525 27.490013,55.5224525 C27.5820596,55.5224525 27.6524482,55.4486183 27.6659845,55.3501727 L28.045,52.9601324 L27.6659845,50.5263385 C27.6524482,50.4278929 27.5847668,50.3622625 27.4927202,50.3622625 L27.4873057,50.3622625 Z M30.7901554,48.0870754 C30.6818653,48.0870754 30.5871114,48.1773172 30.5735751,48.3003742 L30.1729016,52.962867 L30.5789896,57.4558146 C30.5871114,57.5788716 30.679158,57.6691134 30.7955699,57.6691134 C30.9038601,57.6691134 30.9959067,57.5788716 31.0121503,57.4558146 L31.4723834,52.962867 L31.0121503,48.3003742 C30.9959067,48.1773172 30.9038601,48.0870754 30.7955699,48.0870754 L30.7901554,48.0870754 Z M32.5092617,47.9229994 C32.373899,47.9229994 32.2656088,48.0323834 32.2547798,48.1745826 L31.8757642,52.9601324 L32.2547798,57.5980138 C32.2683161,57.740213 32.3766062,57.849597 32.5119689,57.849597 C32.6473316,57.849597 32.7556218,57.740213 32.7664508,57.5980138 L33.1996114,52.962867 L32.7664508,48.171848 C32.7502073,48.035118 32.6419171,47.925734 32.5092617,47.925734 L32.5092617,47.9229994 Z M34.5261658,48.5191422 C34.518044,48.3550662 34.3908031,48.2292746 34.2391969,48.2292746 C34.0821762,48.2292746 33.9576425,48.3550662 33.9468135,48.5218768 L33.5867487,52.9601324 L33.9468135,57.6362982 C33.9576425,57.8003742 34.0821762,57.9234312 34.2391969,57.9234312 C34.3935104,57.9234312 34.518044,57.7976396 34.5288731,57.6335636 L34.9403756,52.9573978 L34.5342876,48.5164076 L34.5261658,48.5191422 Z M35.9826684,45.4071675 C35.8066969,45.4071675 35.6632124,45.5521013 35.6577979,45.7353195 L35.3112694,52.9656016 L35.6496762,57.6417674 C35.6577979,57.8195164 35.8012824,57.9644502 35.9745466,57.9644502 C36.1505181,57.9644502 36.2940026,57.8195164 36.3048316,57.6362982 L36.6838472,52.9656016 L36.3048316,45.7353195 C36.2912953,45.5521013 36.1478109,45.4071675 35.9745466,45.4071675 L35.9826684,45.4071675 Z M37.7126036,43.7445308 C37.5176813,43.7445308 37.3552461,43.9031376 37.3471244,44.1082326 L37.0303756,52.990213 L37.3471244,57.6335636 C37.3552461,57.8413932 37.5176813,58 37.7126036,58 C37.9075259,58 38.0645466,57.8413932 38.0780829,57.6362982 L38.0780829,57.6417674 L38.4354404,52.9929476 L38.0780829,44.1137018 C38.0672539,43.9086068 37.9075259,43.75 37.7126036,43.75 L37.7126036,43.7445308 Z M39.507513,42.9405584 C39.2909326,42.9405584 39.1176684,43.1183074 39.1095466,43.3452792 L38.8117487,52.9710708 L39.1095466,57.5651986 C39.1176684,57.7839666 39.2936399,57.9644502 39.5102202,57.9644502 C39.7268005,57.9644502 39.9054793,57.7867012 39.9163083,57.562464 L40.2493005,52.9683362 L39.9163083,43.3425446 C39.9054793,43.1183074 39.7268005,42.9405584 39.5102202,42.9405584 L39.507513,42.9405584 Z M41.7355829,43.0198618 C41.7274611,42.7737478 41.5352461,42.5823258 41.2970078,42.5823258 C41.0587694,42.5823258 40.8638472,42.7737478 40.8638472,43.0198618 L40.5877073,52.9683362 L40.8584326,57.535118 C40.8665544,57.781232 41.0587694,57.972654 41.299715,57.972654 C41.5433679,57.972654 41.7328756,57.781232 41.7409974,57.535118 L42.0469171,52.9683362 L41.7409974,43.0198618 L41.7355829,43.0198618 Z M43.0946244,42.7956246 C42.834728,42.7956246 42.6262694,43.0061888 42.6208549,43.2741796 L42.3690803,52.9683362 L42.6208549,57.4913644 C42.6262694,57.753886 42.8374352,57.9644502 43.0946244,57.9644502 C43.3545207,57.9644502 43.5656865,57.753886 43.571101,57.4858952 L43.571101,57.4913644 L43.8553627,52.9656016 L43.5683938,43.2741796 C43.5683938,43.0061888 43.3518135,42.7956246 43.0946244,42.7956246 L43.0946244,42.7956246 Z M44.9084845,43.1101036 C44.6269301,43.1101036 44.402228,43.33981 44.3941062,43.6296776 L44.1666969,52.9710708 L44.3995207,57.4640184 C44.4049352,57.7484168 44.6296373,57.972654 44.913899,57.972654 C45.1927461,57.972654 45.4174482,57.7484168 45.4282772,57.4585492 L45.6800518,52.9683362 L45.4228627,43.626943 C45.4147409,43.3370754 45.1900389,43.107369 44.9084845,43.107369 L44.9084845,43.1101036 Z M47.0390933,41.3955095 C46.9524611,41.3408175 46.8495855,41.3025331 46.7358808,41.3025331 C46.6275907,41.3025331 46.524715,41.3298791 46.4380829,41.3900403 C46.2918912,41.4884859 46.1890155,41.6580311 46.1863083,41.8549223 L46.1863083,41.9588371 L45.9778497,52.9683362 L46.1863083,57.4366724 L46.1863083,57.45308 C46.1944301,57.576137 46.2404534,57.6909902 46.3162565,57.781232 C46.4164249,57.904289 46.5680311,57.9835924 46.7358808,57.9835924 C46.8847798,57.9835924 47.0228497,57.9206966 47.1203109,57.8195164 C47.2204793,57.7210708 47.2827461,57.5816062 47.2827461,57.4312032 L47.3098187,56.988198 L47.5182772,52.9683362 L47.2827461,41.8521877 C47.2827461,41.6607657 47.1825777,41.4966897 47.0390933,41.3955095 L47.0390933,41.3955095 Z M47.2854534,57.439407 L47.2854534,57.4339378 L47.2854534,57.439407 Z M48.8529534,40.3426885 C48.7663212,40.2879965 48.6634456,40.2606505 48.5551554,40.2606505 C48.4197927,40.2606505 48.2844301,40.3071387 48.1842617,40.3919113 C48.0543135,40.5012953 47.9676813,40.6653713 47.9676813,40.8485895 L47.9676813,40.9087507 L47.7240285,52.9683362 L47.8512694,55.2025043 L47.9676813,57.371042 C47.9730959,57.6937248 48.2384067,57.958981 48.5551554,57.958981 C48.8746114,57.958981 49.137215,57.6937248 49.1426295,57.3683074 L49.1426295,57.3737766 L49.3998187,52.9710708 L49.1399223,40.8485895 C49.1345078,40.6298215 49.0180959,40.4466033 48.8475389,40.3426885 L48.8529534,40.3426885 Z M64.9881865,47.2338803 C64.257228,47.2338803 63.5614637,47.3842832 62.9306736,47.652274 C62.5029275,42.8038284 58.4772409,39 53.5635751,39 C52.3642617,39 51.1920207,39.2379102 50.1578497,39.642631 C49.7517617,39.806707 49.648886,39.9625792 49.6434715,40.2770581 L49.6434715,57.357369 C49.648886,57.685521 49.9006606,57.945308 50.2201166,57.9753886 L64.9881865,57.9753886 C67.9309715,57.9753886 70.3160622,55.5962867 70.3160622,52.621042 C70.3160622,49.648532 67.9336788,47.2393495 64.9881865,47.2393495 L64.9881865,47.2338803 Z" id="Shape" fill="#0399FF"></path>
        </g>
    </g>
</svg>